<?xml version="1.0" encoding="UTF-8" standalone="no"?>
<!-- Created with Inkscape (http://www.inkscape.org/) -->

<svg
   xmlns:dc="http://purl.org/dc/elements/1.1/"
   xmlns:cc="http://creativecommons.org/ns#"
   xmlns:rdf="http://www.w3.org/1999/02/22-rdf-syntax-ns#"
   xmlns:svg="http://www.w3.org/2000/svg"
   xmlns="http://www.w3.org/2000/svg"
   xmlns:sodipodi="http://sodipodi.sourceforge.net/DTD/sodipodi-0.dtd"
   xmlns:inkscape="http://www.inkscape.org/namespaces/inkscape"
   version="1.1"
   id="svg3713"
   width="192"
   height="192"
   viewBox="0 0 192 192"
   sodipodi:docname="karma-icon.svg"
   inkscape:version="0.92.3 (2405546, 2018-03-11)"
   inkscape:export-filename="C:\Projects\Personal\MSTeams-Karma\MSTeams-Karma\Manifest\karma-fullcolor-192px.png"
   inkscape:export-xdpi="96"
   inkscape:export-ydpi="96">
  <metadata
     id="metadata3719">
    <rdf:RDF>
      <cc:Work
         rdf:about="">
        <dc:format>image/svg+xml</dc:format>
        <dc:type
           rdf:resource="http://purl.org/dc/dcmitype/StillImage" />
        <dc:title />
      </cc:Work>
    </rdf:RDF>
  </metadata>
  <defs
     id="defs3717" />
  <sodipodi:namedview
     pagecolor="#ffffff"
     bordercolor="#666666"
     borderopacity="1"
     objecttolerance="10"
     gridtolerance="10"
     guidetolerance="10"
     inkscape:pageopacity="0"
     inkscape:pageshadow="2"
     inkscape:window-width="1680"
     inkscape:window-height="987"
     id="namedview3715"
     showgrid="false"
     inkscape:zoom="3.6088234"
     inkscape:cx="39.779725"
     inkscape:cy="91.165447"
     inkscape:window-x="-8"
     inkscape:window-y="13"
     inkscape:window-maximized="1"
     inkscape:current-layer="layer1" />
  <g
     inkscape:groupmode="layer"
     id="layer1"
     inkscape:label="bg"
     style="display:inline"
     transform="translate(0,102)">
    <rect
       style="opacity:1;fill:#d9d9d6;fill-opacity:1;stroke-width:2.98939085"
       width="192"
       height="192"
       x="0"
       y="-102"
       id="rect4523" />
    <path
       style="fill:#000000;fill-opacity:0;stroke-width:0.27709863"
       d="M -4.6275475,44.444987 V -3.2159767 H 43.726162 92.079872 V 44.444987 92.10595 H 43.726162 -4.6275475 Z"
       id="path4548"
       inkscape:connector-curvature="0" />
  </g>
  <g
     inkscape:groupmode="layer"
     id="layer2"
     inkscape:label="img"
     style="display:inline"
     transform="translate(0,102)">
    <path
       style="fill:#000000;stroke-width:0.75793457"
       d="M 83.624949,55.43399 C 62.957167,51.274129 45.069375,36.194565 37.502932,16.552705 34.524644,8.8213154 33.462494,2.5428431 33.501014,-7.1030047 33.593737,-30.321329 47.086337,-51.788082 68.083027,-62.123032 77.672232,-66.843011 84.855492,-68.5 95.728004,-68.5 c 18.162666,0 32.871836,6.195105 45.187296,19.031684 11.21427,11.688784 16.60727,24.052189 17.4881,40.0913539 C 160.38477,26.70144 131.62777,56.861175 95.593547,56.496732 91.720242,56.457565 86.33438,55.979324 83.624949,55.43399 Z M 112.8034,51.270797 c 19.93677,-6.298612 34.33404,-20.802787 40.6649,-40.966801 2.39592,-7.6311806 2.55229,-24.190749 0.30037,-31.808762 -5.48878,-18.567859 -18.35693,-33.169405 -35.06987,-39.793936 -2.4088,-0.95478 -5.23226,-1.951842 -6.27433,-2.215693 l -1.89473,-0.47973 1.89473,1.308178 c 3.97787,2.74649 9.32358,8.904828 11.10175,12.789407 6.21555,13.578431 2.12898,30.44512 -9.27825,38.294592 -4.35027,2.9934711 -11.31997,5.2569303 -16.187333,5.2569303 -13.339022,0 -24.508623,6.78961095 -29.90492,18.1781397 -2.130667,4.496625 -2.340978,5.621457 -2.340978,12.52036 0,6.713097 0.242618,8.099945 2.121696,12.127805 3.385947,7.257888 10.408337,13.70176 17.449959,16.01237 4.908721,1.610722 20.673576,0.907583 27.417006,-1.22286 z M 92.255797,31.569467 c -4.311182,-1.74215 -6.360945,-8.8779 -3.65861,-12.736568 1.5125,-2.159682 4.978762,-3.954264 7.63775,-3.954264 2.982347,0 6.946303,2.980944 7.940833,5.97161 2.3903,7.187737 -4.756025,13.614195 -11.919973,10.719222 z m 8.139883,-62.599424 c 2.31752,-1.198603 4.44994,-4.99476 4.44994,-7.92182 0,-4.502715 -4.36684,-8.32457 -9.511643,-8.32457 -2.135152,0 -3.353723,0.587788 -5.34282,2.57716 -2.161013,2.16132 -2.576792,3.123265 -2.576792,5.961678 0,7.033797 6.649904,10.982117 12.981315,7.707552 z"
       id="path3723"
       inkscape:connector-curvature="0" />
  </g>
</svg>
