<?xml version="1.0" encoding="UTF-8" standalone="no"?>
<!-- Created with Inkscape (http://www.inkscape.org/) -->

<svg
   xmlns:dc="http://purl.org/dc/elements/1.1/"
   xmlns:cc="http://creativecommons.org/ns#"
   xmlns:rdf="http://www.w3.org/1999/02/22-rdf-syntax-ns#"
   xmlns:svg="http://www.w3.org/2000/svg"
   xmlns="http://www.w3.org/2000/svg"
   xmlns:sodipodi="http://sodipodi.sourceforge.net/DTD/sodipodi-0.dtd"
   xmlns:inkscape="http://www.inkscape.org/namespaces/inkscape"
   version="1.1"
   id="svg3713"
   width="90"
   height="90"
   viewBox="0 0 89.999999 89.999999"
   sodipodi:docname="ying-yang-symbol-karma.svg"
   inkscape:version="0.92.3 (2405546, 2018-03-11)">
  <metadata
     id="metadata3719">
    <rdf:RDF>
      <cc:Work
         rdf:about="">
        <dc:format>image/svg+xml</dc:format>
        <dc:type
           rdf:resource="http://purl.org/dc/dcmitype/StillImage" />
        <dc:title />
      </cc:Work>
    </rdf:RDF>
  </metadata>
  <defs
     id="defs3717" />
  <sodipodi:namedview
     pagecolor="#ffffff"
     bordercolor="#666666"
     borderopacity="1"
     objecttolerance="10"
     gridtolerance="10"
     guidetolerance="10"
     inkscape:pageopacity="0"
     inkscape:pageshadow="2"
     inkscape:window-width="1920"
     inkscape:window-height="1017"
     id="namedview3715"
     showgrid="false"
     inkscape:zoom="3.6088234"
     inkscape:cx="18.842706"
     inkscape:cy="24.661777"
     inkscape:window-x="1672"
     inkscape:window-y="-8"
     inkscape:window-maximized="1"
     inkscape:current-layer="svg3713" />
  <path
     style="fill:#000000;stroke-width:0.40928471"
     d="M 38.317469,78.174357 C 27.156867,75.928032 17.497459,67.785065 13.411579,57.17846 11.803304,53.00351 11.229743,49.613135 11.250544,44.404377 c 0.05007,-12.537896 7.336074,-24.129943 18.674287,-29.710816 5.178171,-2.548789 9.057131,-3.443563 14.928288,-3.443563 9.80784,0 17.75079,3.345357 24.401145,10.27711 6.05571,6.311944 8.96793,12.988182 9.44358,21.649332 1.069928,19.482337 -14.458852,35.768595 -33.917332,35.571795 -2.091585,-0.02115 -4.99995,-0.279398 -6.463043,-0.573878 z M 54.073837,75.926232 C 64.839689,72.524982 72.614219,64.692725 76.032877,53.804157 77.326679,49.68332 77.411122,40.741152 76.195079,36.627425 73.231139,26.600781 66.282337,18.715946 57.257354,15.138699 55.956599,14.623118 54.431932,14.084705 53.869207,13.942225 l -1.023143,-0.259054 1.023143,0.706416 c 2.148052,1.483104 5.034742,4.808607 5.994952,6.90628 3.356393,7.332353 1.149653,16.440365 -5.010255,20.67908 -2.349142,1.616475 -6.112785,2.838743 -8.741167,2.838743 -7.203068,0 -13.234653,3.66639 -16.148654,9.816195 -1.15056,2.428177 -1.264128,3.035587 -1.264128,6.760995 0,3.625072 0.131014,4.37397 1.145716,6.549015 1.828411,3.91926 5.620502,7.398952 9.422978,8.646682 2.65071,0.86979 11.163728,0.490095 14.805188,-0.660345 z m -11.09571,-10.63872 c -2.328038,-0.940762 -3.43491,-4.794067 -1.97565,-6.877747 0.81675,-1.166228 2.688532,-2.135303 4.124385,-2.135303 1.610467,0 3.751005,1.60971 4.288057,3.22467 1.290765,3.881378 -2.568262,7.351665 -6.436792,5.78838 z m 4.395547,-33.80369 c 1.251458,-0.647246 2.40297,-2.697171 2.40297,-4.277783 0,-2.431466 -2.358105,-4.495268 -5.1363,-4.495268 -1.152982,0 -1.81101,0.317406 -2.885122,1.391666 -1.166948,1.167114 -1.391468,1.686564 -1.391468,3.219307 0,3.79825 3.590948,5.930343 7.00992,4.162078 z"
     id="path3723"
     inkscape:connector-curvature="0" />
</svg>
