<?xml version="1.0" encoding="UTF-8" standalone="no"?>
<!-- Created with Inkscape (http://www.inkscape.org/) -->

<svg
   xmlns:dc="http://purl.org/dc/elements/1.1/"
   xmlns:cc="http://creativecommons.org/ns#"
   xmlns:rdf="http://www.w3.org/1999/02/22-rdf-syntax-ns#"
   xmlns:svg="http://www.w3.org/2000/svg"
   xmlns="http://www.w3.org/2000/svg"
   xmlns:sodipodi="http://sodipodi.sourceforge.net/DTD/sodipodi-0.dtd"
   xmlns:inkscape="http://www.inkscape.org/namespaces/inkscape"
   version="1.1"
   id="svg3713"
   width="32"
   height="32"
   viewBox="0 0 32 32"
   sodipodi:docname="karma.svg"
   inkscape:version="0.92.3 (2405546, 2018-03-11)"
   inkscape:export-filename="C:\Projects\Personal\MSTeams-Karma\MSTeams-Karma\Manifest\karma-transparent-32px.png"
   inkscape:export-xdpi="96"
   inkscape:export-ydpi="96">
  <metadata
     id="metadata3719">
    <rdf:RDF>
      <cc:Work
         rdf:about="">
        <dc:format>image/svg+xml</dc:format>
        <dc:type
           rdf:resource="http://purl.org/dc/dcmitype/StillImage" />
        <dc:title></dc:title>
      </cc:Work>
    </rdf:RDF>
  </metadata>
  <defs
     id="defs3717" />
  <sodipodi:namedview
     pagecolor="#ffffff"
     bordercolor="#666666"
     borderopacity="1"
     objecttolerance="10"
     gridtolerance="10"
     guidetolerance="10"
     inkscape:pageopacity="0"
     inkscape:pageshadow="2"
     inkscape:window-width="1680"
     inkscape:window-height="987"
     id="namedview3715"
     showgrid="false"
     inkscape:zoom="20.414588"
     inkscape:cx="7.4462216"
     inkscape:cy="15.803713"
     inkscape:window-x="-8"
     inkscape:window-y="13"
     inkscape:window-maximized="1"
     inkscape:current-layer="svg3713" />
  <path
     style="fill:#000000;stroke-width:0.15158692"
     d="M 13.524988,28.286799 C 9.3914313,27.454826 5.8138724,24.438912 4.3005836,20.51054 3.7049261,18.964264 3.4924961,17.708569 3.5002011,15.779399 3.5187386,11.135734 6.2172649,6.8423838 10.416604,4.7753938 c 1.917841,-0.9439962 3.354492,-1.2753937 5.528995,-1.2753937 3.632534,0 6.574366,1.2390212 9.037461,3.8063374 2.242855,2.3377566 3.321455,4.8104375 3.497623,8.0182705 0.396268,7.215679 -5.355132,13.247627 -12.561975,13.174738 -0.774662,-0.0079 -1.851834,-0.103475 -2.39372,-0.212547 z M 19.36068,27.45416 c 3.987353,-1.259723 6.866808,-4.160559 8.132978,-8.193361 0.479186,-1.526235 0.510461,-4.83815 0.06008,-6.361753 C 26.455976,9.1854755 23.882346,6.2651663 20.53976,4.9402601 20.057999,4.7493038 19.493308,4.5498913 19.284891,4.4971213 l -0.378942,-0.09595 0.378942,0.2616363 c 0.795574,0.5492975 1.864719,1.7809649 2.220353,2.5578812 1.243107,2.7156863 0.425797,6.0890242 -1.85565,7.6589172 -0.870053,0.598695 -2.263995,1.051387 -3.23747,1.051387 -2.667803,0 -4.901723,1.357922 -5.980983,3.635628 -0.426133,0.899324 -0.4681959,1.12429 -0.4681959,2.504071 0,1.342619 0.048525,1.619989 0.4243399,2.425562 0.677189,1.451577 2.081668,2.740352 3.489991,3.202473 0.981745,0.322145 4.134715,0.181518 5.483404,-0.244571 z m -4.109522,-3.940268 c -0.862237,-0.34843 -1.272189,-1.77558 -0.731723,-2.547313 0.3025,-0.431937 0.995753,-0.790853 1.52755,-0.790853 0.596469,0 1.389261,0.596189 1.588169,1.194323 0.478061,1.437547 -0.951208,2.722838 -2.383996,2.143843 z m 1.62798,-12.519883 c 0.463503,-0.239721 0.889988,-0.9989529 0.889988,-1.5843639 0,-0.9005434 -0.873372,-1.6649138 -1.902332,-1.6649138 -0.427031,0 -0.670745,0.1175625 -1.068564,0.5154317 -0.432204,0.432265 -0.515359,0.6246537 -0.515359,1.1923361 0,1.4067589 1.32998,2.1964219 2.596267,1.5415099 z"
     id="path3723"
     inkscape:connector-curvature="0" />
</svg>
